<?xml version="1.0" encoding="utf-8"?>
<svg xmlns="http://www.w3.org/2000/svg" viewBox="0 0 485 466" width="485px" height="466px" xmlns:bx="https://boxy-svg.com">
  <defs>
    <bx:export>
      <bx:file format="svg"/>
    </bx:export>
  </defs>
  <g transform="matrix(2.046866, 0, 0, 2.046866, -233.03772, -352.720612)" style="">
    <path style="stroke: rgb(0, 0, 0); stroke-opacity: 0; fill: rgb(28, 106, 251); transform-origin: 231.425px 286.369px 0px;" d="M 230.879 399.995 L 230.879 252.743 L 207.338 276.299 L 207.338 377.801 L 143.159 377.801 L 143.159 400"/>
    <path style="stroke: rgb(0, 0, 0); stroke-opacity: 0; fill: rgb(28, 106, 251); transform-origin: 231.425px 286.466px 0px;" d="M 265.128 400 L 287.536 400 L 287.536 213.306 L 264.818 226.443 L 264.818 399.719"/>
    <path style="stroke: rgb(0, 0, 0); stroke-opacity: 0; fill: rgb(28, 106, 251);" d="M 321.955 399.978 L 344.363 399.978 L 344.363 207.11 C 344.486 195.896 322.058 195.443 321.935 207.11 C 321.935 207.11 321.935 400.326 321.935 400"/>
    <path style="stroke: rgb(0, 0, 0); paint-order: fill; stroke-opacity: 0; fill: rgb(28, 106, 251); transform-origin: 231.425px 286.348px 0px;" d="M 313.338 179.537 C 281.344 192.202 183.786 239.952 113.851 400 L 146.606 400 C 146.606 400 213.853 245.422 320.118 203.348 C 324.889 192.857 322.705 183.536 313.338 179.537 Z"/>
    <path d="M 356.016 187.944 C 356.016 200.241 346.047 210.21 333.75 210.21 C 321.453 210.21 311.484 200.241 311.484 187.944 C 311.484 175.647 321.453 165.678 333.75 165.678 C 346.047 165.678 356.016 175.647 356.016 187.944 Z" style="stroke: rgb(0, 0, 0); stroke-opacity: 0; fill: rgb(255, 255, 255); transform-origin: 184.34px 331.629px 0px;"/>
    <ellipse style="stroke: rgb(0, 0, 0); stroke-opacity: 0; fill: rgb(28, 106, 251); transform-origin: 231.425px 286.348px 0px;" cx="333.75" cy="187.944" rx="15.249" ry="15.249"/>
  </g>
</svg>